<mxfile host="app.diagrams.net" modified="2024-05-14T08:27:04.784Z" agent="Mozilla/5.0 (Windows NT 10.0; Win64; x64) AppleWebKit/537.36 (KHTML, like Gecko) Chrome/124.0.0.0 Safari/537.36 Edg/124.0.0.0" etag="intEpDW3cl5hd2zyNUpq" version="24.4.0" type="device">
  <diagram name="Page-1" id="xjr84KhNgGRLZB0ReCIE">
    <mxGraphModel dx="1356" dy="835" grid="1" gridSize="10" guides="1" tooltips="1" connect="1" arrows="1" fold="1" page="1" pageScale="1" pageWidth="850" pageHeight="1100" math="0" shadow="0">
      <root>
        <mxCell id="0" />
        <mxCell id="1" parent="0" />
        <mxCell id="6QtJPU3z65JMccwfzHJz-35" style="edgeStyle=orthogonalEdgeStyle;rounded=0;orthogonalLoop=1;jettySize=auto;html=1;exitX=0.5;exitY=1;exitDx=0;exitDy=0;entryX=0.5;entryY=0;entryDx=0;entryDy=0;" edge="1" parent="1" target="6QtJPU3z65JMccwfzHJz-4">
          <mxGeometry relative="1" as="geometry">
            <mxPoint x="458.5" y="169.9999999999999" as="sourcePoint" />
          </mxGeometry>
        </mxCell>
        <mxCell id="6QtJPU3z65JMccwfzHJz-38" style="edgeStyle=orthogonalEdgeStyle;rounded=0;orthogonalLoop=1;jettySize=auto;html=1;exitX=0.5;exitY=1;exitDx=0;exitDy=0;entryX=0.5;entryY=0;entryDx=0;entryDy=0;" edge="1" parent="1" source="6QtJPU3z65JMccwfzHJz-2" target="6QtJPU3z65JMccwfzHJz-5">
          <mxGeometry relative="1" as="geometry" />
        </mxCell>
        <mxCell id="6QtJPU3z65JMccwfzHJz-2" value="Key Inputs" style="rounded=1;whiteSpace=wrap;html=1;shadow=0;comic=0;labelBackgroundColor=none;strokeWidth=1;fontFamily=Verdana;fontSize=12;align=center;arcSize=50;" vertex="1" parent="1">
          <mxGeometry x="170" y="310" width="100" height="30" as="geometry" />
        </mxCell>
        <mxCell id="6QtJPU3z65JMccwfzHJz-45" style="edgeStyle=orthogonalEdgeStyle;rounded=0;orthogonalLoop=1;jettySize=auto;html=1;exitX=0.5;exitY=1;exitDx=0;exitDy=0;entryX=0.5;entryY=0;entryDx=0;entryDy=0;" edge="1" parent="1" source="6QtJPU3z65JMccwfzHJz-3" target="6QtJPU3z65JMccwfzHJz-6">
          <mxGeometry relative="1" as="geometry" />
        </mxCell>
        <mxCell id="6QtJPU3z65JMccwfzHJz-3" value="Keys Input" style="rounded=1;whiteSpace=wrap;html=1;shadow=0;comic=0;labelBackgroundColor=none;strokeWidth=1;fontFamily=Verdana;fontSize=12;align=center;arcSize=50;" vertex="1" parent="1">
          <mxGeometry x="620" y="300" width="100" height="30" as="geometry" />
        </mxCell>
        <mxCell id="6QtJPU3z65JMccwfzHJz-36" style="edgeStyle=orthogonalEdgeStyle;rounded=0;orthogonalLoop=1;jettySize=auto;html=1;exitX=1;exitY=0.5;exitDx=0;exitDy=0;entryX=0.5;entryY=0;entryDx=0;entryDy=0;" edge="1" parent="1" source="6QtJPU3z65JMccwfzHJz-4" target="6QtJPU3z65JMccwfzHJz-3">
          <mxGeometry relative="1" as="geometry" />
        </mxCell>
        <mxCell id="6QtJPU3z65JMccwfzHJz-37" style="edgeStyle=orthogonalEdgeStyle;rounded=0;orthogonalLoop=1;jettySize=auto;html=1;exitX=0;exitY=0.5;exitDx=0;exitDy=0;" edge="1" parent="1" source="6QtJPU3z65JMccwfzHJz-4" target="6QtJPU3z65JMccwfzHJz-2">
          <mxGeometry relative="1" as="geometry" />
        </mxCell>
        <mxCell id="6QtJPU3z65JMccwfzHJz-4" value="" style="rhombus;whiteSpace=wrap;html=1;" vertex="1" parent="1">
          <mxGeometry x="433.5" y="220" width="50" height="50" as="geometry" />
        </mxCell>
        <mxCell id="6QtJPU3z65JMccwfzHJz-39" style="edgeStyle=orthogonalEdgeStyle;rounded=0;orthogonalLoop=1;jettySize=auto;html=1;exitX=0.5;exitY=1;exitDx=0;exitDy=0;entryX=0.5;entryY=0;entryDx=0;entryDy=0;" edge="1" parent="1" source="6QtJPU3z65JMccwfzHJz-5" target="6QtJPU3z65JMccwfzHJz-23">
          <mxGeometry relative="1" as="geometry" />
        </mxCell>
        <mxCell id="6QtJPU3z65JMccwfzHJz-5" value="Encryption&lt;span style=&quot;color: rgba(0, 0, 0, 0); font-family: monospace; font-size: 0px; text-align: start; text-wrap: nowrap;&quot;&gt;%3CmxGraphModel%3E%3Croot%3E%3CmxCell%20id%3D%220%22%2F%3E%3CmxCell%20id%3D%221%22%20parent%3D%220%22%2F%3E%3CmxCell%20id%3D%222%22%20value%3D%22Key%20Inputs%22%20style%3D%22rounded%3D1%3BwhiteSpace%3Dwrap%3Bhtml%3D1%3Bshadow%3D0%3Bcomic%3D0%3BlabelBackgroundColor%3Dnone%3BstrokeWidth%3D1%3BfontFamily%3DVerdana%3BfontSize%3D12%3Balign%3Dcenter%3BarcSize%3D50%3B%22%20vertex%3D%221%22%20parent%3D%221%22%3E%3CmxGeometry%20x%3D%22170%22%20y%3D%22230%22%20width%3D%22100%22%20height%3D%2230%22%20as%3D%22geometry%22%2F%3E%3C%2FmxCell%3E%3C%2Froot%3E%3C%2FmxGraphModel%3E&lt;/span&gt;" style="rounded=1;whiteSpace=wrap;html=1;shadow=0;comic=0;labelBackgroundColor=none;strokeWidth=1;fontFamily=Verdana;fontSize=12;align=center;arcSize=50;" vertex="1" parent="1">
          <mxGeometry x="170" y="390" width="100" height="30" as="geometry" />
        </mxCell>
        <mxCell id="6QtJPU3z65JMccwfzHJz-46" style="edgeStyle=orthogonalEdgeStyle;rounded=0;orthogonalLoop=1;jettySize=auto;html=1;exitX=0.5;exitY=1;exitDx=0;exitDy=0;entryX=0.5;entryY=0;entryDx=0;entryDy=0;" edge="1" parent="1" source="6QtJPU3z65JMccwfzHJz-6" target="6QtJPU3z65JMccwfzHJz-31">
          <mxGeometry relative="1" as="geometry" />
        </mxCell>
        <mxCell id="6QtJPU3z65JMccwfzHJz-6" value="Decryption" style="rounded=1;whiteSpace=wrap;html=1;shadow=0;comic=0;labelBackgroundColor=none;strokeWidth=1;fontFamily=Verdana;fontSize=12;align=center;arcSize=50;" vertex="1" parent="1">
          <mxGeometry x="620" y="390" width="100" height="30" as="geometry" />
        </mxCell>
        <mxCell id="6QtJPU3z65JMccwfzHJz-40" style="rounded=0;orthogonalLoop=1;jettySize=auto;html=1;exitX=0.25;exitY=1;exitDx=0;exitDy=0;entryX=0.25;entryY=0;entryDx=0;entryDy=0;" edge="1" parent="1" source="6QtJPU3z65JMccwfzHJz-23" target="6QtJPU3z65JMccwfzHJz-25">
          <mxGeometry relative="1" as="geometry" />
        </mxCell>
        <mxCell id="6QtJPU3z65JMccwfzHJz-41" style="rounded=0;orthogonalLoop=1;jettySize=auto;html=1;exitX=0.75;exitY=1;exitDx=0;exitDy=0;entryX=0.5;entryY=0;entryDx=0;entryDy=0;" edge="1" parent="1" source="6QtJPU3z65JMccwfzHJz-23" target="6QtJPU3z65JMccwfzHJz-26">
          <mxGeometry relative="1" as="geometry" />
        </mxCell>
        <mxCell id="6QtJPU3z65JMccwfzHJz-23" value="" style="whiteSpace=wrap;html=1;rounded=0;shadow=0;comic=0;labelBackgroundColor=none;strokeWidth=1;fillColor=#000000;fontFamily=Verdana;fontSize=12;align=center;rotation=0;" vertex="1" parent="1">
          <mxGeometry x="146.5" y="470" width="147" height="10" as="geometry" />
        </mxCell>
        <mxCell id="6QtJPU3z65JMccwfzHJz-42" style="rounded=0;orthogonalLoop=1;jettySize=auto;html=1;exitX=0.5;exitY=1;exitDx=0;exitDy=0;entryX=0.25;entryY=0;entryDx=0;entryDy=0;" edge="1" parent="1" source="6QtJPU3z65JMccwfzHJz-25" target="6QtJPU3z65JMccwfzHJz-29">
          <mxGeometry relative="1" as="geometry" />
        </mxCell>
        <mxCell id="6QtJPU3z65JMccwfzHJz-25" value="Display Cipher" style="rounded=1;whiteSpace=wrap;html=1;shadow=0;comic=0;labelBackgroundColor=none;strokeWidth=1;fontFamily=Verdana;fontSize=12;align=center;arcSize=50;" vertex="1" parent="1">
          <mxGeometry x="100" y="540" width="100" height="30" as="geometry" />
        </mxCell>
        <mxCell id="6QtJPU3z65JMccwfzHJz-43" style="rounded=0;orthogonalLoop=1;jettySize=auto;html=1;exitX=0.5;exitY=1;exitDx=0;exitDy=0;entryX=0.75;entryY=0;entryDx=0;entryDy=0;" edge="1" parent="1" source="6QtJPU3z65JMccwfzHJz-26" target="6QtJPU3z65JMccwfzHJz-29">
          <mxGeometry relative="1" as="geometry" />
        </mxCell>
        <mxCell id="6QtJPU3z65JMccwfzHJz-26" value="Store Cipher" style="rounded=1;whiteSpace=wrap;html=1;shadow=0;comic=0;labelBackgroundColor=none;strokeWidth=1;fontFamily=Verdana;fontSize=12;align=center;arcSize=50;" vertex="1" parent="1">
          <mxGeometry x="280" y="540" width="100" height="30" as="geometry" />
        </mxCell>
        <mxCell id="6QtJPU3z65JMccwfzHJz-44" style="rounded=0;orthogonalLoop=1;jettySize=auto;html=1;exitX=0.5;exitY=1;exitDx=0;exitDy=0;entryX=0.25;entryY=0;entryDx=0;entryDy=0;" edge="1" parent="1" source="6QtJPU3z65JMccwfzHJz-29" target="6QtJPU3z65JMccwfzHJz-30">
          <mxGeometry relative="1" as="geometry" />
        </mxCell>
        <mxCell id="6QtJPU3z65JMccwfzHJz-29" value="" style="whiteSpace=wrap;html=1;rounded=0;shadow=0;comic=0;labelBackgroundColor=none;strokeWidth=1;fillColor=#000000;fontFamily=Verdana;fontSize=12;align=center;rotation=0;" vertex="1" parent="1">
          <mxGeometry x="146.5" y="630" width="147" height="10" as="geometry" />
        </mxCell>
        <mxCell id="6QtJPU3z65JMccwfzHJz-52" style="edgeStyle=orthogonalEdgeStyle;rounded=0;orthogonalLoop=1;jettySize=auto;html=1;exitX=0.5;exitY=1;exitDx=0;exitDy=0;entryX=0.5;entryY=0;entryDx=0;entryDy=0;" edge="1" parent="1" source="6QtJPU3z65JMccwfzHJz-30">
          <mxGeometry relative="1" as="geometry">
            <mxPoint x="458.5000000000001" y="750" as="targetPoint" />
          </mxGeometry>
        </mxCell>
        <mxCell id="6QtJPU3z65JMccwfzHJz-30" value="" style="whiteSpace=wrap;html=1;rounded=0;shadow=0;comic=0;labelBackgroundColor=none;strokeWidth=1;fillColor=#000000;fontFamily=Verdana;fontSize=12;align=center;rotation=0;" vertex="1" parent="1">
          <mxGeometry x="385" y="690" width="147" height="10" as="geometry" />
        </mxCell>
        <mxCell id="6QtJPU3z65JMccwfzHJz-47" style="edgeStyle=orthogonalEdgeStyle;rounded=0;orthogonalLoop=1;jettySize=auto;html=1;exitX=0.5;exitY=1;exitDx=0;exitDy=0;entryX=0.5;entryY=0;entryDx=0;entryDy=0;" edge="1" parent="1" source="6QtJPU3z65JMccwfzHJz-31" target="6QtJPU3z65JMccwfzHJz-32">
          <mxGeometry relative="1" as="geometry" />
        </mxCell>
        <mxCell id="6QtJPU3z65JMccwfzHJz-31" value="Decoding" style="rounded=1;whiteSpace=wrap;html=1;shadow=0;comic=0;labelBackgroundColor=none;strokeWidth=1;fontFamily=Verdana;fontSize=12;align=center;arcSize=50;" vertex="1" parent="1">
          <mxGeometry x="620" y="480" width="100" height="30" as="geometry" />
        </mxCell>
        <mxCell id="6QtJPU3z65JMccwfzHJz-48" style="rounded=0;orthogonalLoop=1;jettySize=auto;html=1;exitX=0.5;exitY=1;exitDx=0;exitDy=0;entryX=0.75;entryY=0;entryDx=0;entryDy=0;" edge="1" parent="1" source="6QtJPU3z65JMccwfzHJz-32" target="6QtJPU3z65JMccwfzHJz-30">
          <mxGeometry relative="1" as="geometry" />
        </mxCell>
        <mxCell id="6QtJPU3z65JMccwfzHJz-32" value="Display plain text" style="rounded=1;whiteSpace=wrap;html=1;shadow=0;comic=0;labelBackgroundColor=none;strokeWidth=1;fontFamily=Verdana;fontSize=12;align=center;arcSize=50;" vertex="1" parent="1">
          <mxGeometry x="620" y="570" width="100" height="30" as="geometry" />
        </mxCell>
        <mxCell id="6QtJPU3z65JMccwfzHJz-53" value="Plain text user input" style="text;html=1;align=center;verticalAlign=middle;resizable=0;points=[];autosize=1;strokeColor=none;fillColor=none;" vertex="1" parent="1">
          <mxGeometry x="255" y="220" width="130" height="30" as="geometry" />
        </mxCell>
        <mxCell id="6QtJPU3z65JMccwfzHJz-54" value="Cipher text user input" style="text;html=1;align=center;verticalAlign=middle;resizable=0;points=[];autosize=1;strokeColor=none;fillColor=none;" vertex="1" parent="1">
          <mxGeometry x="520" y="220" width="140" height="30" as="geometry" />
        </mxCell>
        <mxCell id="6QtJPU3z65JMccwfzHJz-55" value="&lt;b&gt;&lt;font face=&quot;Times New Roman&quot; style=&quot;font-size: 17px;&quot;&gt;ACTIVITY DIAGRAM&lt;/font&gt;&lt;/b&gt;" style="text;html=1;align=center;verticalAlign=middle;resizable=0;points=[];autosize=1;strokeColor=none;fillColor=none;" vertex="1" parent="1">
          <mxGeometry x="358.5" y="50" width="200" height="30" as="geometry" />
        </mxCell>
        <mxCell id="6QtJPU3z65JMccwfzHJz-58" value="" style="ellipse;fillColor=strokeColor;html=1;" vertex="1" parent="1">
          <mxGeometry x="443.5" y="140" width="30" height="30" as="geometry" />
        </mxCell>
        <mxCell id="6QtJPU3z65JMccwfzHJz-59" value="" style="ellipse;html=1;shape=endState;fillColor=strokeColor;" vertex="1" parent="1">
          <mxGeometry x="443.5" y="750" width="30" height="30" as="geometry" />
        </mxCell>
      </root>
    </mxGraphModel>
  </diagram>
</mxfile>
